<mxfile host="app.diagrams.net" modified="2023-09-26T14:34:41.011Z" agent="Mozilla/5.0 (Windows NT 10.0; Win64; x64) AppleWebKit/537.36 (KHTML, like Gecko) Chrome/116.0.0.0 Safari/537.36" etag="0fYRfEbhXuLnLgJIvP0U" version="21.8.0" type="device">
  <diagram name="Страница — 1" id="pbeneuDk5NrZc_-wiX-L">
    <mxGraphModel dx="1185" dy="657" grid="1" gridSize="10" guides="1" tooltips="1" connect="1" arrows="1" fold="1" page="1" pageScale="1" pageWidth="827" pageHeight="1169" math="0" shadow="0">
      <root>
        <mxCell id="0" />
        <mxCell id="1" parent="0" />
        <mxCell id="wlgG4VAXKo5RFyFkX9F5-28" style="edgeStyle=orthogonalEdgeStyle;rounded=0;orthogonalLoop=1;jettySize=auto;html=1;exitX=0.75;exitY=0;exitDx=0;exitDy=0;entryX=0;entryY=0.5;entryDx=0;entryDy=0;dashed=1;endArrow=block;endFill=0;" edge="1" parent="1" source="wlgG4VAXKo5RFyFkX9F5-3" target="wlgG4VAXKo5RFyFkX9F5-7">
          <mxGeometry relative="1" as="geometry" />
        </mxCell>
        <mxCell id="wlgG4VAXKo5RFyFkX9F5-37" style="edgeStyle=orthogonalEdgeStyle;rounded=0;orthogonalLoop=1;jettySize=auto;html=1;exitX=0.68;exitY=0.992;exitDx=0;exitDy=0;exitPerimeter=0;" edge="1" parent="1" source="wlgG4VAXKo5RFyFkX9F5-6">
          <mxGeometry relative="1" as="geometry">
            <mxPoint x="330" y="610" as="targetPoint" />
            <Array as="points">
              <mxPoint x="159" y="610" />
              <mxPoint x="330" y="610" />
            </Array>
          </mxGeometry>
        </mxCell>
        <mxCell id="wlgG4VAXKo5RFyFkX9F5-3" value="AccessMenu" style="swimlane;fontStyle=1;align=center;verticalAlign=top;childLayout=stackLayout;horizontal=1;startSize=26;horizontalStack=0;resizeParent=1;resizeParentMax=0;resizeLast=0;collapsible=1;marginBottom=0;whiteSpace=wrap;html=1;" vertex="1" parent="1">
          <mxGeometry x="30" y="320" width="190" height="110" as="geometry" />
        </mxCell>
        <mxCell id="wlgG4VAXKo5RFyFkX9F5-4" value="- hashValue: String&lt;br&gt;" style="text;strokeColor=none;fillColor=none;align=left;verticalAlign=top;spacingLeft=4;spacingRight=4;overflow=hidden;rotatable=0;points=[[0,0.5],[1,0.5]];portConstraint=eastwest;whiteSpace=wrap;html=1;" vertex="1" parent="wlgG4VAXKo5RFyFkX9F5-3">
          <mxGeometry y="26" width="190" height="26" as="geometry" />
        </mxCell>
        <mxCell id="wlgG4VAXKo5RFyFkX9F5-5" value="" style="line;strokeWidth=1;fillColor=none;align=left;verticalAlign=middle;spacingTop=-1;spacingLeft=3;spacingRight=3;rotatable=0;labelPosition=right;points=[];portConstraint=eastwest;strokeColor=inherit;" vertex="1" parent="wlgG4VAXKo5RFyFkX9F5-3">
          <mxGeometry y="52" width="190" height="8" as="geometry" />
        </mxCell>
        <mxCell id="wlgG4VAXKo5RFyFkX9F5-6" value="- AccessToken(User): Token&lt;br&gt;+ checkToken(Token):boolean" style="text;strokeColor=none;fillColor=none;align=left;verticalAlign=top;spacingLeft=4;spacingRight=4;overflow=hidden;rotatable=0;points=[[0,0.5],[1,0.5]];portConstraint=eastwest;whiteSpace=wrap;html=1;" vertex="1" parent="wlgG4VAXKo5RFyFkX9F5-3">
          <mxGeometry y="60" width="190" height="50" as="geometry" />
        </mxCell>
        <mxCell id="wlgG4VAXKo5RFyFkX9F5-7" value="«interface»&lt;br&gt;&lt;b&gt;iAccess&lt;br&gt;&lt;/b&gt;" style="html=1;whiteSpace=wrap;" vertex="1" parent="1">
          <mxGeometry x="280" y="130" width="110" height="50" as="geometry" />
        </mxCell>
        <mxCell id="wlgG4VAXKo5RFyFkX9F5-31" style="edgeStyle=orthogonalEdgeStyle;rounded=0;orthogonalLoop=1;jettySize=auto;html=1;exitX=0.25;exitY=1;exitDx=0;exitDy=0;entryX=0.75;entryY=0;entryDx=0;entryDy=0;endArrow=diamond;endFill=1;" edge="1" parent="1" source="wlgG4VAXKo5RFyFkX9F5-8" target="wlgG4VAXKo5RFyFkX9F5-23">
          <mxGeometry relative="1" as="geometry">
            <Array as="points">
              <mxPoint x="480" y="180" />
              <mxPoint x="480" y="210" />
              <mxPoint x="450" y="210" />
            </Array>
          </mxGeometry>
        </mxCell>
        <mxCell id="wlgG4VAXKo5RFyFkX9F5-8" value="«interface»&lt;br&gt;&lt;b&gt;iRepo&lt;br&gt;&lt;/b&gt;" style="html=1;whiteSpace=wrap;" vertex="1" parent="1">
          <mxGeometry x="450" y="130" width="110" height="50" as="geometry" />
        </mxCell>
        <mxCell id="wlgG4VAXKo5RFyFkX9F5-9" value="" style="endArrow=none;dashed=1;html=1;dashPattern=1 3;strokeWidth=2;rounded=0;" edge="1" parent="1">
          <mxGeometry width="50" height="50" relative="1" as="geometry">
            <mxPoint x="240" y="920" as="sourcePoint" />
            <mxPoint x="240" y="40" as="targetPoint" />
          </mxGeometry>
        </mxCell>
        <mxCell id="wlgG4VAXKo5RFyFkX9F5-10" value="" style="endArrow=none;dashed=1;html=1;dashPattern=1 3;strokeWidth=2;rounded=0;" edge="1" parent="1">
          <mxGeometry width="50" height="50" relative="1" as="geometry">
            <mxPoint x="600" y="920" as="sourcePoint" />
            <mxPoint x="600" y="40" as="targetPoint" />
          </mxGeometry>
        </mxCell>
        <mxCell id="wlgG4VAXKo5RFyFkX9F5-11" value="User" style="swimlane;fontStyle=1;align=center;verticalAlign=top;childLayout=stackLayout;horizontal=1;startSize=26;horizontalStack=0;resizeParent=1;resizeParentMax=0;resizeLast=0;collapsible=1;marginBottom=0;whiteSpace=wrap;html=1;" vertex="1" parent="1">
          <mxGeometry x="330" y="550" width="160" height="190" as="geometry" />
        </mxCell>
        <mxCell id="wlgG4VAXKo5RFyFkX9F5-12" value="- id: Int&lt;br&gt;- name: String&lt;br&gt;- email: String&lt;br&gt;- password: String" style="text;strokeColor=none;fillColor=none;align=left;verticalAlign=top;spacingLeft=4;spacingRight=4;overflow=hidden;rotatable=0;points=[[0,0.5],[1,0.5]];portConstraint=eastwest;whiteSpace=wrap;html=1;" vertex="1" parent="wlgG4VAXKo5RFyFkX9F5-11">
          <mxGeometry y="26" width="160" height="64" as="geometry" />
        </mxCell>
        <mxCell id="wlgG4VAXKo5RFyFkX9F5-13" value="" style="line;strokeWidth=1;fillColor=none;align=left;verticalAlign=middle;spacingTop=-1;spacingLeft=3;spacingRight=3;rotatable=0;labelPosition=right;points=[];portConstraint=eastwest;strokeColor=inherit;" vertex="1" parent="wlgG4VAXKo5RFyFkX9F5-11">
          <mxGeometry y="90" width="160" height="8" as="geometry" />
        </mxCell>
        <mxCell id="wlgG4VAXKo5RFyFkX9F5-14" value="+ getName()&lt;br&gt;+ getEmail()&lt;br&gt;+ getPassword()&lt;br&gt;+ setName()&lt;br style=&quot;border-color: var(--border-color);&quot;&gt;+ setEmail()&lt;br style=&quot;border-color: var(--border-color);&quot;&gt;+ setPassword()" style="text;strokeColor=none;fillColor=none;align=left;verticalAlign=top;spacingLeft=4;spacingRight=4;overflow=hidden;rotatable=0;points=[[0,0.5],[1,0.5]];portConstraint=eastwest;whiteSpace=wrap;html=1;" vertex="1" parent="wlgG4VAXKo5RFyFkX9F5-11">
          <mxGeometry y="98" width="160" height="92" as="geometry" />
        </mxCell>
        <mxCell id="wlgG4VAXKo5RFyFkX9F5-29" style="edgeStyle=orthogonalEdgeStyle;rounded=0;orthogonalLoop=1;jettySize=auto;html=1;exitX=0.25;exitY=0;exitDx=0;exitDy=0;entryX=1;entryY=0.5;entryDx=0;entryDy=0;endArrow=block;endFill=0;dashed=1;" edge="1" parent="1" source="wlgG4VAXKo5RFyFkX9F5-15" target="wlgG4VAXKo5RFyFkX9F5-8">
          <mxGeometry relative="1" as="geometry" />
        </mxCell>
        <mxCell id="wlgG4VAXKo5RFyFkX9F5-15" value="AccessRepo" style="swimlane;fontStyle=1;align=center;verticalAlign=top;childLayout=stackLayout;horizontal=1;startSize=26;horizontalStack=0;resizeParent=1;resizeParentMax=0;resizeLast=0;collapsible=1;marginBottom=0;whiteSpace=wrap;html=1;" vertex="1" parent="1">
          <mxGeometry x="630" y="320" width="160" height="150" as="geometry" />
        </mxCell>
        <mxCell id="wlgG4VAXKo5RFyFkX9F5-16" value="- users: User&lt;br&gt;- tokens: Token" style="text;strokeColor=none;fillColor=none;align=left;verticalAlign=top;spacingLeft=4;spacingRight=4;overflow=hidden;rotatable=0;points=[[0,0.5],[1,0.5]];portConstraint=eastwest;whiteSpace=wrap;html=1;" vertex="1" parent="wlgG4VAXKo5RFyFkX9F5-15">
          <mxGeometry y="26" width="160" height="44" as="geometry" />
        </mxCell>
        <mxCell id="wlgG4VAXKo5RFyFkX9F5-17" value="" style="line;strokeWidth=1;fillColor=none;align=left;verticalAlign=middle;spacingTop=-1;spacingLeft=3;spacingRight=3;rotatable=0;labelPosition=right;points=[];portConstraint=eastwest;strokeColor=inherit;" vertex="1" parent="wlgG4VAXKo5RFyFkX9F5-15">
          <mxGeometry y="70" width="160" height="8" as="geometry" />
        </mxCell>
        <mxCell id="wlgG4VAXKo5RFyFkX9F5-18" value="+ findUser()&lt;br&gt;+ addUser()&lt;br&gt;+ deleteUser()&lt;br&gt;+ getUser()" style="text;strokeColor=none;fillColor=none;align=left;verticalAlign=top;spacingLeft=4;spacingRight=4;overflow=hidden;rotatable=0;points=[[0,0.5],[1,0.5]];portConstraint=eastwest;whiteSpace=wrap;html=1;" vertex="1" parent="wlgG4VAXKo5RFyFkX9F5-15">
          <mxGeometry y="78" width="160" height="72" as="geometry" />
        </mxCell>
        <mxCell id="wlgG4VAXKo5RFyFkX9F5-19" value="Token" style="swimlane;fontStyle=1;align=center;verticalAlign=top;childLayout=stackLayout;horizontal=1;startSize=26;horizontalStack=0;resizeParent=1;resizeParentMax=0;resizeLast=0;collapsible=1;marginBottom=0;whiteSpace=wrap;html=1;" vertex="1" parent="1">
          <mxGeometry x="330" y="370" width="160" height="120" as="geometry" />
        </mxCell>
        <mxCell id="wlgG4VAXKo5RFyFkX9F5-20" value="- hashValue: String" style="text;strokeColor=none;fillColor=none;align=left;verticalAlign=top;spacingLeft=4;spacingRight=4;overflow=hidden;rotatable=0;points=[[0,0.5],[1,0.5]];portConstraint=eastwest;whiteSpace=wrap;html=1;" vertex="1" parent="wlgG4VAXKo5RFyFkX9F5-19">
          <mxGeometry y="26" width="160" height="26" as="geometry" />
        </mxCell>
        <mxCell id="wlgG4VAXKo5RFyFkX9F5-21" value="" style="line;strokeWidth=1;fillColor=none;align=left;verticalAlign=middle;spacingTop=-1;spacingLeft=3;spacingRight=3;rotatable=0;labelPosition=right;points=[];portConstraint=eastwest;strokeColor=inherit;" vertex="1" parent="wlgG4VAXKo5RFyFkX9F5-19">
          <mxGeometry y="52" width="160" height="8" as="geometry" />
        </mxCell>
        <mxCell id="wlgG4VAXKo5RFyFkX9F5-22" value="+ getHashValue&lt;br&gt;+ setHashValue" style="text;strokeColor=none;fillColor=none;align=left;verticalAlign=top;spacingLeft=4;spacingRight=4;overflow=hidden;rotatable=0;points=[[0,0.5],[1,0.5]];portConstraint=eastwest;whiteSpace=wrap;html=1;" vertex="1" parent="wlgG4VAXKo5RFyFkX9F5-19">
          <mxGeometry y="60" width="160" height="60" as="geometry" />
        </mxCell>
        <mxCell id="wlgG4VAXKo5RFyFkX9F5-23" value="AccessComp" style="swimlane;fontStyle=1;align=center;verticalAlign=top;childLayout=stackLayout;horizontal=1;startSize=26;horizontalStack=0;resizeParent=1;resizeParentMax=0;resizeLast=0;collapsible=1;marginBottom=0;whiteSpace=wrap;html=1;" vertex="1" parent="1">
          <mxGeometry x="330" y="240" width="160" height="86" as="geometry" />
        </mxCell>
        <mxCell id="wlgG4VAXKo5RFyFkX9F5-24" value="&amp;nbsp;" style="text;strokeColor=none;fillColor=none;align=left;verticalAlign=top;spacingLeft=4;spacingRight=4;overflow=hidden;rotatable=0;points=[[0,0.5],[1,0.5]];portConstraint=eastwest;whiteSpace=wrap;html=1;" vertex="1" parent="wlgG4VAXKo5RFyFkX9F5-23">
          <mxGeometry y="26" width="160" height="26" as="geometry" />
        </mxCell>
        <mxCell id="wlgG4VAXKo5RFyFkX9F5-25" value="" style="line;strokeWidth=1;fillColor=none;align=left;verticalAlign=middle;spacingTop=-1;spacingLeft=3;spacingRight=3;rotatable=0;labelPosition=right;points=[];portConstraint=eastwest;strokeColor=inherit;" vertex="1" parent="wlgG4VAXKo5RFyFkX9F5-23">
          <mxGeometry y="52" width="160" height="8" as="geometry" />
        </mxCell>
        <mxCell id="wlgG4VAXKo5RFyFkX9F5-26" value="+ createUser(): User" style="text;strokeColor=none;fillColor=none;align=left;verticalAlign=top;spacingLeft=4;spacingRight=4;overflow=hidden;rotatable=0;points=[[0,0.5],[1,0.5]];portConstraint=eastwest;whiteSpace=wrap;html=1;" vertex="1" parent="wlgG4VAXKo5RFyFkX9F5-23">
          <mxGeometry y="60" width="160" height="26" as="geometry" />
        </mxCell>
        <mxCell id="wlgG4VAXKo5RFyFkX9F5-30" style="edgeStyle=orthogonalEdgeStyle;rounded=0;orthogonalLoop=1;jettySize=auto;html=1;exitX=0.75;exitY=1;exitDx=0;exitDy=0;endArrow=diamond;endFill=1;entryX=0.314;entryY=0.009;entryDx=0;entryDy=0;entryPerimeter=0;" edge="1" parent="1" target="wlgG4VAXKo5RFyFkX9F5-23">
          <mxGeometry relative="1" as="geometry">
            <mxPoint x="360" y="180" as="sourcePoint" />
            <mxPoint x="390" y="230" as="targetPoint" />
            <Array as="points">
              <mxPoint x="360" y="210" />
              <mxPoint x="380" y="210" />
              <mxPoint x="380" y="241" />
            </Array>
          </mxGeometry>
        </mxCell>
        <mxCell id="wlgG4VAXKo5RFyFkX9F5-32" style="edgeStyle=orthogonalEdgeStyle;rounded=0;orthogonalLoop=1;jettySize=auto;html=1;exitX=0.25;exitY=1;exitDx=0;exitDy=0;entryX=0.313;entryY=0;entryDx=0;entryDy=0;entryPerimeter=0;" edge="1" parent="1" source="wlgG4VAXKo5RFyFkX9F5-23" target="wlgG4VAXKo5RFyFkX9F5-19">
          <mxGeometry relative="1" as="geometry" />
        </mxCell>
        <mxCell id="wlgG4VAXKo5RFyFkX9F5-33" style="edgeStyle=orthogonalEdgeStyle;rounded=0;orthogonalLoop=1;jettySize=auto;html=1;exitX=1;exitY=0.5;exitDx=0;exitDy=0;entryX=-0.023;entryY=0.212;entryDx=0;entryDy=0;entryPerimeter=0;" edge="1" parent="1" source="wlgG4VAXKo5RFyFkX9F5-6" target="wlgG4VAXKo5RFyFkX9F5-20">
          <mxGeometry relative="1" as="geometry" />
        </mxCell>
        <mxCell id="wlgG4VAXKo5RFyFkX9F5-39" style="edgeStyle=orthogonalEdgeStyle;rounded=0;orthogonalLoop=1;jettySize=auto;html=1;exitX=0;exitY=0.5;exitDx=0;exitDy=0;entryX=1;entryY=0.5;entryDx=0;entryDy=0;" edge="1" parent="1" source="wlgG4VAXKo5RFyFkX9F5-16" target="wlgG4VAXKo5RFyFkX9F5-20">
          <mxGeometry relative="1" as="geometry" />
        </mxCell>
        <mxCell id="wlgG4VAXKo5RFyFkX9F5-40" style="edgeStyle=orthogonalEdgeStyle;rounded=0;orthogonalLoop=1;jettySize=auto;html=1;" edge="1" parent="1">
          <mxGeometry relative="1" as="geometry">
            <mxPoint x="680" y="470" as="sourcePoint" />
            <mxPoint x="490" y="680" as="targetPoint" />
            <Array as="points">
              <mxPoint x="680" y="680" />
              <mxPoint x="490" y="680" />
            </Array>
          </mxGeometry>
        </mxCell>
        <mxCell id="wlgG4VAXKo5RFyFkX9F5-41" style="edgeStyle=orthogonalEdgeStyle;rounded=0;orthogonalLoop=1;jettySize=auto;html=1;exitX=1;exitY=0.5;exitDx=0;exitDy=0;" edge="1" parent="1" source="wlgG4VAXKo5RFyFkX9F5-24" target="wlgG4VAXKo5RFyFkX9F5-12">
          <mxGeometry relative="1" as="geometry">
            <Array as="points">
              <mxPoint x="530" y="279" />
              <mxPoint x="530" y="593" />
            </Array>
          </mxGeometry>
        </mxCell>
        <mxCell id="wlgG4VAXKo5RFyFkX9F5-43" value="Адаптер" style="text;html=1;strokeColor=none;fillColor=none;align=center;verticalAlign=middle;whiteSpace=wrap;rounded=0;" vertex="1" parent="1">
          <mxGeometry x="80" y="50" width="60" height="30" as="geometry" />
        </mxCell>
        <mxCell id="wlgG4VAXKo5RFyFkX9F5-44" value="Логика" style="text;html=1;strokeColor=none;fillColor=none;align=center;verticalAlign=middle;whiteSpace=wrap;rounded=0;" vertex="1" parent="1">
          <mxGeometry x="390" y="50" width="60" height="30" as="geometry" />
        </mxCell>
        <mxCell id="wlgG4VAXKo5RFyFkX9F5-45" value="Данные" style="text;html=1;strokeColor=none;fillColor=none;align=center;verticalAlign=middle;whiteSpace=wrap;rounded=0;" vertex="1" parent="1">
          <mxGeometry x="670" y="50" width="60" height="30" as="geometry" />
        </mxCell>
      </root>
    </mxGraphModel>
  </diagram>
</mxfile>
